<?xml version="1.0" ?><svg height="512" preserveAspectRatio="xMidYMid" viewBox="0 0 512 512" width="512" xmlns="http://www.w3.org/2000/svg" xmlns:xlink="http://www.w3.org/1999/xlink"><defs><style>
      .cls-1 {
        fill: #fff;
      }

      .cls-2 {
        fill: #2257a2;
      }

      .cls-2, .cls-3 {
        fill-rule: evenodd;
      }

      .cls-3 {
        fill: #000;
        opacity: 0.1;
      }
    </style></defs><circle class="cls-1" cx="256" cy="256" r="256"/><path class="cls-2" d="M256.000,512.000 C114.615,512.000 0.000,397.385 0.000,256.000 C0.000,114.615 114.615,0.000 256.000,0.000 C397.385,0.000 512.000,114.615 512.000,256.000 C512.000,397.385 397.385,512.000 256.000,512.000 ZM259.916,71.000 C153.831,71.000 67.833,156.961 67.833,263.000 C67.833,297.068 76.710,329.064 92.278,356.803 C92.278,356.803 100.993,367.049 68.537,392.912 C47.577,409.614 69.343,426.789 90.086,429.244 C104.356,430.932 137.066,429.237 151.610,421.591 C182.445,442.671 219.740,455.000 259.916,455.000 C366.001,455.000 452.000,369.039 452.000,263.000 C452.000,156.961 366.001,71.000 259.916,71.000 ZM259.916,429.244 C221.356,429.244 185.882,416.034 157.778,393.894 C155.898,393.894 119.173,404.659 101.799,398.805 C129.541,377.919 118.736,349.860 118.736,349.860 C103.530,324.881 94.771,295.548 94.771,264.171 C94.771,173.003 168.709,99.098 259.916,99.098 C351.123,99.098 425.061,173.003 425.061,264.171 C425.061,355.338 351.123,429.244 259.916,429.244 ZM144.647,304.491 C144.647,309.600 148.438,309.829 148.438,309.829 C148.438,309.829 155.949,309.829 161.191,309.829 C166.446,309.829 166.159,303.621 166.159,303.621 C166.159,303.621 166.159,258.564 166.159,245.969 C166.159,240.691 161.480,240.653 161.480,240.653 C161.480,240.653 154.005,240.653 149.017,240.653 C144.661,240.653 144.647,245.099 144.647,245.099 C144.647,245.099 144.647,288.994 144.647,304.491 ZM155.403,204.667 C148.468,204.667 143.939,209.336 144.080,215.560 C143.939,221.502 148.468,226.312 155.261,226.312 C162.337,226.312 166.866,221.502 166.866,215.560 C166.725,209.336 162.337,204.667 155.403,204.667 ZM293.671,269.087 C293.671,248.434 283.623,239.097 270.320,239.097 C265.225,239.097 260.979,240.229 257.158,242.492 C253.903,244.473 250.789,247.302 248.242,250.839 L247.958,250.839 C244.986,243.624 237.910,239.097 228.994,239.097 C217.106,239.097 211.020,245.604 208.048,249.990 L207.624,249.990 L207.073,244.800 C207.073,244.800 206.306,240.653 202.058,240.653 C199.307,240.653 195.820,240.653 193.073,240.653 C188.560,240.653 188.700,244.823 188.700,244.823 C188.700,244.823 189.084,255.978 189.084,262.722 L189.084,302.463 C189.084,302.463 189.082,309.829 195.971,309.829 C199.008,309.829 202.501,309.829 205.246,309.829 C210.778,309.829 210.029,302.463 210.029,302.463 L210.029,269.512 C210.029,267.814 210.171,265.834 210.879,264.136 C212.152,260.600 215.407,256.356 220.927,256.356 C227.720,256.356 230.834,262.297 230.834,271.068 C230.834,271.068 230.834,291.219 230.834,302.463 C230.834,309.415 236.259,309.829 236.259,309.829 C236.259,309.829 241.446,309.829 245.823,309.829 C251.846,309.829 251.780,303.042 251.780,303.042 L251.780,269.370 C251.780,267.673 252.063,265.409 252.629,263.853 C254.044,259.751 257.582,256.356 262.536,256.356 C269.470,256.356 272.726,262.156 272.726,272.200 L272.726,301.883 C272.726,301.883 271.621,309.829 277.126,309.829 C280.515,309.829 288.720,309.829 288.720,309.829 C288.720,309.829 293.671,309.337 293.671,302.463 C293.671,290.724 293.671,269.087 293.671,269.087 ZM349.430,239.097 C327.210,239.097 312.491,253.385 312.491,275.736 C312.491,298.088 328.059,311.385 348.297,311.385 C366.837,311.385 384.811,299.785 384.811,274.463 C384.811,253.668 370.659,239.097 349.430,239.097 ZM348.864,295.966 C339.664,295.966 334.711,287.053 334.711,275.170 C334.711,264.985 338.532,254.375 348.864,254.375 C358.629,254.375 362.592,264.844 362.592,275.170 C362.592,287.619 357.214,295.966 348.864,295.966 Z"/><path class="cls-3" d="M436.999,75.012 C536.959,174.972 536.959,337.039 436.999,436.999 C337.039,536.959 174.972,536.959 75.012,436.999 "/></svg>